# xmcd CD database file
#
# Track frame offsets:
#	150
#	14808
#	28352
#	41569
#	54506
#	66363
#	76922
#	91323
#	107144
#
# Disc length: 1606 seconds
#
# Revision: 0
# Processed by: cddbd v1.5.2PL0 Copyright (c) Steve Scherf et al.
# Submitted via: CDex 1.51
#
DISCID=78064409
DTITLE=Lynn Anderson - Greatest Hits
DYEAR=2005
DGENRE=Country
TTITLE0=Rose Garden
TTITLE1=Top Of The World
TTITLE2=How Can I Unlove You
TTITLE3=Big Girls Don't Cry
TTITLE4=You're My Man
TTITLE5=Rocky Top
TTITLE6=Cry
TTITLE7=What Fools Say
TTITLE8=Time Alone
EXTD=YEAR: 2005
EXTT0=
EXTT1=
EXTT2=
EXTT3=
EXTT4=
EXTT5=
EXTT6=
EXTT7=
EXTT8=
PLAYORDER=
